<?xml version="1.0" encoding="utf-8"?>
<!-- Generator: Adobe Illustrator 24.1.2, SVG Export Plug-In . SVG Version: 6.00 Build 0)  -->
<svg version="1.1" id="Layer_1" xmlns="http://www.w3.org/2000/svg" xmlns:xlink="http://www.w3.org/1999/xlink" x="0px" y="0px"
	 viewBox="0 0 128 128" style="enable-background:new 0 0 128 128;" xml:space="preserve">
<style type="text/css">
	.st0{fill:none;stroke:#000000;stroke-width:2.2697;stroke-miterlimit:2.2697;}
	.st1{fill-rule:evenodd;clip-rule:evenodd;fill:url(#SVGID_1_);}
	.st2{fill-rule:evenodd;clip-rule:evenodd;fill:url(#SVGID_2_);}
	.st3{fill-rule:evenodd;clip-rule:evenodd;fill:url(#SVGID_3_);}
	.st4{fill-rule:evenodd;clip-rule:evenodd;fill:url(#SVGID_4_);}
	.st5{fill-rule:evenodd;clip-rule:evenodd;fill:#6A4519;fill-opacity:0.7565;}
	.st6{fill:none;stroke:#000000;}
	.st7{fill-rule:evenodd;clip-rule:evenodd;fill:url(#SVGID_5_);}
	.st8{fill-rule:evenodd;clip-rule:evenodd;fill:url(#SVGID_6_);}
</style>
<path class="st0" d="M107.1,91.2l-32.5,21.1L14.7,95.9"/>
<linearGradient id="SVGID_1_" gradientUnits="userSpaceOnUse" x1="104.5075" y1="92.1281" x2="38.7945" y2="47.0911" gradientTransform="matrix(1 0 0 -1 0 127.8898)">
	<stop  offset="0" style="stop-color:#6F4E28"/>
	<stop  offset="1" style="stop-color:#130C04"/>
</linearGradient>
<path class="st1" d="M62.2,23.9l45,7.3v43.5l-45.1,0.5L62.2,23.9L62.2,23.9z"/>
<linearGradient id="SVGID_2_" gradientUnits="userSpaceOnUse" x1="64.833" y1="97.3691" x2="33.521" y2="65.6471" gradientTransform="matrix(1 0 0 -1 0 127.8898)">
	<stop  offset="0" style="stop-color:#6A4519"/>
	<stop  offset="1" style="stop-color:#AB7D46"/>
</linearGradient>
<path class="st2" d="M14.4,36.2l47.9-12.4l-0.1,54.6l-47.5,2.4L14.4,36.2L14.4,36.2z"/>
<linearGradient id="SVGID_3_" gradientUnits="userSpaceOnUse" x1="17.445" y1="32.2719" x2="74.817" y2="77.3079" gradientTransform="matrix(1 0 0 -1 0 127.8898)">
	<stop  offset="0" style="stop-color:#6A4519"/>
	<stop  offset="1" style="stop-color:#C29158"/>
</linearGradient>
<path class="st3" d="M14.5,36.3l59.9,10.5v65.7L14.5,96.5V36.3z"/>
<linearGradient id="SVGID_4_" gradientUnits="userSpaceOnUse" x1="103.8528" y1="36.515" x2="75.6518" y2="78.418" gradientTransform="matrix(1 0 0 -1 0 127.8898)">
	<stop  offset="0" style="stop-color:#6A4519"/>
	<stop  offset="1" style="stop-color:#AB7D46"/>
</linearGradient>
<path class="st4" d="M74.3,112.6V46.9l33.2-15.1v59.7L74.3,112.6L74.3,112.6z"/>
<path class="st5" d="M73.8,47.3c-5.1,20.8-5.5,21.1-5.5,21.1l-27.4-5.9L73.8,47.3L73.8,47.3z"/>
<path class="st6" d="M102.5,34.2L74.2,47.5l-54.3-10"/>
<linearGradient id="SVGID_5_" gradientUnits="userSpaceOnUse" x1="42.9314" y1="86.155" x2="32.8564" y2="64.616" gradientTransform="matrix(1 0 0 -1 0 127.8898)">
	<stop  offset="0" style="stop-color:#E3B06F"/>
	<stop  offset="1" style="stop-color:#C5AC8E"/>
</linearGradient>
<path class="st7" d="M14.4,36.2l59.9,10.6L59.6,70.6L1.4,58.1L14.4,36.2L14.4,36.2z"/>
<path class="st5" d="M74.6,46.9L84.4,63l23.9-10.2L74.6,46.9L74.6,46.9z"/>
<linearGradient id="SVGID_6_" gradientUnits="userSpaceOnUse" x1="93.5698" y1="87.4959" x2="108.5438" y2="74.5729" gradientTransform="matrix(1 0 0 -1 0 127.8898)">
	<stop  offset="0" style="stop-color:#E3B06F"/>
	<stop  offset="1" style="stop-color:#C5AC8E"/>
</linearGradient>
<path class="st8" d="M74.4,46.9l19.9,14l32.4-15.1l-19.2-14.5C107.4,31.3,74.4,46.9,74.4,46.9z"/>
<path d="M40.9,82.7c-0.8-0.2-1.6,0.3-1.8,1.2c-0.2,0.9,0.2,1.7,1,1.9c0.8,0.2,1.6-0.3,1.8-1.2C42.2,83.7,41.7,82.9,40.9,82.7z
	 M46,84c-0.8-0.2-1.6,0.3-1.8,1.2c-0.2,0.9,0.2,1.7,1,1.9c0.8,0.2,1.6-0.3,1.8-1.2C47.3,85.1,46.8,84.2,46,84z"/>
<path d="M55.9,74.1l-18.7-5c-1.6-0.4-3.2,0.5-3.6,2.1l-5,18.8c-0.4,1.6,0.5,3.2,2.1,3.6L46.5,98l0-2.8l1.3,2.1l1.3,2l2.3,3.5l6.7-25
	C58.4,76.2,57.5,74.6,55.9,74.1z M45.7,90.9c0,0-0.3-0.7-0.6-1.4c2,0,3-1,3-1c-0.7,0.2-1.3,0.3-1.8,0.4C45.4,89,44.7,89.1,44,89
	c-1.4-0.1-2.6-0.5-3.6-1c-0.8-0.4-1.4-0.8-1.9-1.1c-0.3-0.2-0.6-0.5-0.9-0.7c0,0-0.1-0.1-0.1-0.1c0,0,0,0,0-0.1
	c-0.2-0.2-0.3-0.3-0.3-0.3s0.4,1.3,2,2.3c-0.6,0.4-1.2,0.9-1.2,0.9c-3.1-0.9-3.7-3.3-3.7-3.3c1.2-4.5,4.2-7.6,4.2-7.6
	c2.4-1,4.3-0.4,4.3-0.4l0.1,0.2c-2.7,0.1-4.2,0.8-4.2,0.8s0.4-0.1,0.9-0.2c1.7-0.3,2.9-0.1,3.4,0c0.1,0,0.2,0,0.2,0
	c0.9,0.1,1.8,0.3,2.8,0.7c1.3,0.5,2.6,1.3,3.8,2.5c0,0-0.8-1.3-3-2.7l0.3-0.2c0,0,1.9,0.5,3.5,2.5c0,0,1,4.2-0.2,8.7
	C50.5,89.9,48.8,91.6,45.7,90.9z"/>
</svg>
